<svg width="32" height="35" viewBox="0 0 32 35" fill="none" xmlns="http://www.w3.org/2000/svg">
<rect x="0.5" y="1.5" width="31" height="31" rx="9.5" stroke="#56A959"/>
<path d="M7.99923 17.904C7.99923 16.3093 8.34423 14.891 9.03423 13.649C9.72423 12.3917 10.6826 11.418 11.9092 10.728C13.1512 10.0227 14.5542 9.67 16.1182 9.67C18.0349 9.67 19.6756 10.176 21.0402 11.188C22.4049 12.2 23.3172 13.58 23.7772 15.328H19.4532C19.1312 14.6533 18.6712 14.1397 18.0732 13.787C17.4906 13.4343 16.8236 13.258 16.0722 13.258C14.8609 13.258 13.8796 13.6797 13.1282 14.523C12.3769 15.3663 12.0012 16.4933 12.0012 17.904C12.0012 19.3147 12.3769 20.4417 13.1282 21.285C13.8796 22.1283 14.8609 22.55 16.0722 22.55C16.8236 22.55 17.4906 22.3737 18.0732 22.021C18.6712 21.6683 19.1312 21.1547 19.4532 20.48H23.7772C23.3172 22.228 22.4049 23.608 21.0402 24.62C19.6756 25.6167 18.0349 26.115 16.1182 26.115C14.5542 26.115 13.1512 25.77 11.9092 25.08C10.6826 24.3747 9.72423 23.401 9.03423 22.159C8.34423 20.917 7.99923 19.4987 7.99923 17.904Z" fill="#56A959"/>
</svg>
