<svg width="133" height="35" viewBox="0 0 133 35" fill="none" xmlns="http://www.w3.org/2000/svg">
<path d="M51.032 26.192C49.752 26.192 48.568 25.984 47.48 25.568C46.408 25.136 45.472 24.536 44.672 23.768C43.888 22.984 43.272 22.072 42.824 21.032C42.376 19.992 42.152 18.848 42.152 17.6C42.152 16.352 42.376 15.208 42.824 14.168C43.272 13.128 43.896 12.224 44.696 11.456C45.496 10.672 46.432 10.072 47.504 9.656C48.592 9.224 49.776 9.008 51.056 9.008C52.352 9.008 53.544 9.232 54.632 9.68C55.736 10.112 56.672 10.76 57.44 11.624L55.88 13.136C55.24 12.464 54.52 11.968 53.72 11.648C52.92 11.312 52.064 11.144 51.152 11.144C50.208 11.144 49.328 11.304 48.512 11.624C47.712 11.944 47.016 12.392 46.424 12.968C45.832 13.544 45.368 14.232 45.032 15.032C44.712 15.816 44.552 16.672 44.552 17.6C44.552 18.528 44.712 19.392 45.032 20.192C45.368 20.976 45.832 21.656 46.424 22.232C47.016 22.808 47.712 23.256 48.512 23.576C49.328 23.896 50.208 24.056 51.152 24.056C52.064 24.056 52.92 23.896 53.72 23.576C54.52 23.24 55.24 22.728 55.88 22.04L57.44 23.552C56.672 24.416 55.736 25.072 54.632 25.52C53.544 25.968 52.344 26.192 51.032 26.192ZM68.2597 26V23.312L68.1397 22.808V18.224C68.1397 17.248 67.8517 16.496 67.2757 15.968C66.7157 15.424 65.8677 15.152 64.7317 15.152C63.9797 15.152 63.2437 15.28 62.5237 15.536C61.8037 15.776 61.1957 16.104 60.6997 16.52L59.7397 14.792C60.3957 14.264 61.1797 13.864 62.0917 13.592C63.0197 13.304 63.9877 13.16 64.9957 13.16C66.7397 13.16 68.0837 13.584 69.0277 14.432C69.9717 15.28 70.4437 16.576 70.4437 18.32V26H68.2597ZM64.0837 26.144C63.1397 26.144 62.3077 25.984 61.5877 25.664C60.8837 25.344 60.3397 24.904 59.9557 24.344C59.5717 23.768 59.3797 23.12 59.3797 22.4C59.3797 21.712 59.5397 21.088 59.8597 20.528C60.1957 19.968 60.7317 19.52 61.4677 19.184C62.2197 18.848 63.2277 18.68 64.4917 18.68H68.5237V20.336H64.5877C63.4357 20.336 62.6597 20.528 62.2597 20.912C61.8597 21.296 61.6597 21.76 61.6597 22.304C61.6597 22.928 61.9077 23.432 62.4037 23.816C62.8997 24.184 63.5877 24.368 64.4677 24.368C65.3317 24.368 66.0837 24.176 66.7237 23.792C67.3797 23.408 67.8517 22.848 68.1397 22.112L68.5957 23.696C68.2917 24.448 67.7557 25.048 66.9877 25.496C66.2197 25.928 65.2517 26.144 64.0837 26.144ZM74.7074 26V8.192H77.0114V26H74.7074ZM81.4106 26V8.192H83.7146V26H81.4106ZM96.5137 26V23.096L96.4897 22.664V17.936C96.4897 16.704 96.1617 15.768 95.5057 15.128C94.8497 14.488 93.8977 14.168 92.6497 14.168C91.7377 14.168 90.9057 14.328 90.1537 14.648C89.4017 14.952 88.7537 15.352 88.2097 15.848L87.7777 15.272C88.3697 14.712 89.0977 14.272 89.9617 13.952C90.8257 13.616 91.7297 13.448 92.6737 13.448C94.1617 13.448 95.2977 13.832 96.0817 14.6C96.8817 15.352 97.2817 16.464 97.2817 17.936V26H96.5137ZM91.8817 26.072C90.9377 26.072 90.1297 25.928 89.4577 25.64C88.8017 25.352 88.2977 24.944 87.9457 24.416C87.5937 23.872 87.4177 23.256 87.4177 22.568C87.4177 21.96 87.5617 21.4 87.8497 20.888C88.1377 20.36 88.6097 19.944 89.2657 19.64C89.9377 19.32 90.8337 19.16 91.9537 19.16H96.7777V19.808H91.9537C90.5937 19.808 89.6257 20.064 89.0497 20.576C88.4897 21.088 88.2097 21.736 88.2097 22.52C88.2097 23.4 88.5377 24.104 89.1937 24.632C89.8497 25.144 90.7617 25.4 91.9297 25.4C93.0817 25.4 94.0337 25.144 94.7857 24.632C95.5377 24.104 96.1057 23.36 96.4897 22.4L96.7537 22.928C96.4337 23.872 95.8577 24.632 95.0257 25.208C94.1937 25.784 93.1457 26.072 91.8817 26.072ZM108.613 26.072C107.493 26.072 106.485 25.816 105.589 25.304C104.693 24.776 103.981 24.04 103.453 23.096C102.941 22.136 102.685 21.032 102.685 19.784C102.685 18.52 102.941 17.416 103.453 16.472C103.981 15.512 104.693 14.768 105.589 14.24C106.485 13.712 107.493 13.448 108.613 13.448C109.765 13.448 110.797 13.72 111.709 14.264C112.637 14.808 113.365 15.552 113.893 16.496C114.437 17.44 114.709 18.536 114.709 19.784C114.709 21.016 114.437 22.104 113.893 23.048C113.365 23.992 112.637 24.736 111.709 25.28C110.797 25.808 109.765 26.072 108.613 26.072ZM102.469 30.656V13.544H103.237V17.912L103.021 19.808L103.261 21.704V30.656H102.469ZM108.589 25.352C109.597 25.352 110.501 25.12 111.301 24.656C112.117 24.192 112.757 23.536 113.221 22.688C113.685 21.84 113.917 20.872 113.917 19.784C113.917 18.664 113.685 17.688 113.221 16.856C112.757 16.024 112.117 15.376 111.301 14.912C110.501 14.432 109.597 14.192 108.589 14.192C107.565 14.192 106.653 14.432 105.853 14.912C105.053 15.376 104.421 16.024 103.957 16.856C103.493 17.688 103.261 18.664 103.261 19.784C103.261 20.872 103.493 21.84 103.957 22.688C104.421 23.536 105.053 24.192 105.853 24.656C106.653 25.12 107.565 25.352 108.589 25.352ZM124.761 26.072C123.641 26.072 122.633 25.816 121.737 25.304C120.841 24.776 120.129 24.04 119.601 23.096C119.089 22.136 118.833 21.032 118.833 19.784C118.833 18.52 119.089 17.416 119.601 16.472C120.129 15.512 120.841 14.768 121.737 14.24C122.633 13.712 123.641 13.448 124.761 13.448C125.913 13.448 126.945 13.72 127.857 14.264C128.785 14.808 129.513 15.552 130.041 16.496C130.585 17.44 130.857 18.536 130.857 19.784C130.857 21.016 130.585 22.104 130.041 23.048C129.513 23.992 128.785 24.736 127.857 25.28C126.945 25.808 125.913 26.072 124.761 26.072ZM118.617 30.656V13.544H119.385V17.912L119.169 19.808L119.409 21.704V30.656H118.617ZM124.737 25.352C125.745 25.352 126.649 25.12 127.449 24.656C128.265 24.192 128.905 23.536 129.369 22.688C129.833 21.84 130.065 20.872 130.065 19.784C130.065 18.664 129.833 17.688 129.369 16.856C128.905 16.024 128.265 15.376 127.449 14.912C126.649 14.432 125.745 14.192 124.737 14.192C123.713 14.192 122.801 14.432 122.001 14.912C121.201 15.376 120.569 16.024 120.105 16.856C119.641 17.688 119.409 18.664 119.409 19.784C119.409 20.872 119.641 21.84 120.105 22.688C120.569 23.536 121.201 24.192 122.001 24.656C122.801 25.12 123.713 25.352 124.737 25.352Z" fill="white"/>
<rect x="0.5" y="1.5" width="31" height="31" rx="9.5" stroke="white" stroke-opacity="0.5"/>
<path d="M7.99923 17.904C7.99923 16.3093 8.34423 14.891 9.03423 13.649C9.72423 12.3917 10.6826 11.418 11.9092 10.728C13.1512 10.0227 14.5542 9.67 16.1182 9.67C18.0349 9.67 19.6756 10.176 21.0402 11.188C22.4049 12.2 23.3172 13.58 23.7772 15.328H19.4532C19.1312 14.6533 18.6712 14.1397 18.0732 13.787C17.4906 13.4343 16.8236 13.258 16.0722 13.258C14.8609 13.258 13.8796 13.6797 13.1282 14.523C12.3769 15.3663 12.0012 16.4933 12.0012 17.904C12.0012 19.3147 12.3769 20.4417 13.1282 21.285C13.8796 22.1283 14.8609 22.55 16.0722 22.55C16.8236 22.55 17.4906 22.3737 18.0732 22.021C18.6712 21.6683 19.1312 21.1547 19.4532 20.48H23.7772C23.3172 22.228 22.4049 23.608 21.0402 24.62C19.6756 25.6167 18.0349 26.115 16.1182 26.115C14.5542 26.115 13.1512 25.77 11.9092 25.08C10.6826 24.3747 9.72423 23.401 9.03423 22.159C8.34423 20.917 7.99923 19.4987 7.99923 17.904Z" fill="white" fill-opacity="0.57"/>
</svg>
